<svg xmlns="http://www.w3.org/2000/svg" width="126" height="32" viewBox="0 0 126 32">
  <defs>
    <style>
      .cls-1 {
        fill: #fff;
        fill-rule: evenodd;
      }
    </style>
  </defs>
  <path id="RyanThaut" class="cls-1" d="M14.848,18.949q-0.34-.551-0.615-0.967a7.551,7.551,0,0,0-.557-0.744,4.048,4.048,0,0,0-.592-0.568,3.554,3.554,0,0,0-.732-0.428V16.2a5.981,5.981,0,0,0,1.541-.627,4.548,4.548,0,0,0,1.172-.979,4.21,4.21,0,0,0,.75-1.307,4.728,4.728,0,0,0,.264-1.611,4.644,4.644,0,0,0-.387-1.963,3.894,3.894,0,0,0-1.072-1.4A4.55,4.55,0,0,0,13,7.471,7.153,7.153,0,0,0,10.969,7.2H5.953V24H7.922V16.852H9.539a3.378,3.378,0,0,1,.99.135,2.582,2.582,0,0,1,.82.428,4.285,4.285,0,0,1,.744.756,10.312,10.312,0,0,1,.75,1.119L15.656,24H18Zm-4.23-9.973a3.751,3.751,0,0,1,2.525.756,2.635,2.635,0,0,1,.873,2.1,3.414,3.414,0,0,1-.258,1.354,2.894,2.894,0,0,1-.715,1.019,3.161,3.161,0,0,1-1.084.639,4.051,4.051,0,0,1-1.365.223H7.922V8.977h2.7ZM27.023,11.4l-2.988,5.567q-0.129.234-.223,0.428t-0.152.346H23.637Q23.543,17.5,23.455,17.3T23.3,16.969L20.449,11.4H18.34l4.348,7.98V24H24.6V19.348L29.063,11.4H27.023Zm9.234,0H34.336L29.3,24h2.1l1.242-3.3h5.285L39.246,24h2.1Zm-3.012,7.652,1.711-4.746a2.044,2.044,0,0,0,.076-0.223q0.041-.141.082-0.311t0.076-.34q0.035-.17.059-0.31h0.035a1.9,1.9,0,0,0,.053.293q0.041,0.164.088,0.334t0.088,0.3q0.041,0.135.064,0.193l1.781,4.8H33.246ZM54.773,11.4H52.981v8.332q0,0.668.023,1.125a6.319,6.319,0,0,0,.07.726H53.039Q53,21.527,52.951,21.434T52.8,21.2l-0.246-.346-0.357-.5L45.574,11.4H43.406V24H45.2V15.363a13.091,13.091,0,0,0-.07-1.734h0.059a4.487,4.487,0,0,0,.334.6q0.24,0.381.6,0.873L52.734,24h2.039V11.4ZM68.977,7.2H57.316V8.977h4.84V24h1.969V8.977h4.852V7.2Zm13.1,4.207H80.145v5.121h-6.75V11.4H71.473V24h1.922V18.152h6.75V24h1.934V11.4Zm9.023,0H89.18L84.141,24h2.1l1.242-3.3h5.285L94.09,24h2.1ZM88.09,19.055L89.8,14.309a2.066,2.066,0,0,0,.076-0.223q0.041-.141.082-0.311t0.076-.34q0.035-.17.059-0.31h0.035a1.928,1.928,0,0,0,.053.293q0.041,0.164.088,0.334t0.088,0.3q0.041,0.135.064,0.193l1.781,4.8H88.09ZM108.633,11.4H106.7v7.535a6.321,6.321,0,0,1-.187,1.641,2.77,2.77,0,0,1-.592,1.143,2.369,2.369,0,0,1-1.031.662,4.7,4.7,0,0,1-1.494.211,4.927,4.927,0,0,1-1.553-.217,2.5,2.5,0,0,1-1.072-.674,2.8,2.8,0,0,1-.622-1.154,6.064,6.064,0,0,1-.2-1.646V11.4H98.016v7.7A5.112,5.112,0,0,0,99.34,22.94a5.343,5.343,0,0,0,3.867,1.283,5.614,5.614,0,0,0,4.037-1.33,5.28,5.28,0,0,0,1.389-3.99V11.4Zm12.094,0h-9.973v1.629h4.031V24h1.922V13.031h4.02V11.4Z"/>
</svg>
